Coordinates
version=1
nRows=16
nColumns=40
inDegrees=yes

Units are S.I. units (second, meters, Newtons, ...)
Angles are in degrees.

endheader
time	pelvis_tilt	pelvis_list	pelvis_rotation	pelvis_tx	pelvis_ty	pelvis_tz	hip_flexion_r	hip_adduction_r	hip_rotation_r	knee_angle_r	knee_angle_r_beta	ankle_angle_r	subtalar_angle_r	mtp_angle_r	hip_flexion_l	hip_adduction_l	hip_rotation_l	knee_angle_l	knee_angle_l_beta	ankle_angle_l	subtalar_angle_l	mtp_angle_l	lumbar_extension	lumbar_bending	lumbar_rotation	arm_flex_r	arm_add_r	arm_rot_r	elbow_flex_r	pro_sup_r	wrist_flex_r	wrist_dev_r	arm_flex_l	arm_add_l	arm_rot_l	elbow_flex_l	pro_sup_l	wrist_flex_l	wrist_dev_l
     51.99328571	     -2.52886612	     -6.23568462	      8.94667474	      1.07641811	      0.92814468	      0.49698366	      0.36661577	      5.74319409	    -20.08801591	      7.17827708	      7.17827708	     12.19114537	      7.10626192	     -9.46449051	     28.94196657	     -9.69793763	     -4.87123989	     17.05335264	     17.05335264	      2.60514262	     -5.07032546	      5.06839750	     -9.17863303	      8.16385564	      4.21500908	     46.30407188	    -20.07410476	     -5.51266198	     81.84761314	     44.75594044	      0.00000000	      0.00000000	    -10.79789871	     -5.83157528	      4.85575981	     26.36306792	     44.24459345	      0.00000000	      0.00000000
     52.00657143	     -2.40099515	     -6.25634538	      8.88237830	      1.07760705	      0.92743076	      0.49548595	     -0.13740789	      5.71346505	    -19.92269086	      7.39652018	      7.39652018	     12.71561063	      7.04819180	     -9.54185905	     28.20379441	     -9.62654892	     -4.68706514	     17.88204238	     17.88204238	      2.32357028	     -5.67758192	      4.98638705	     -9.05801959	      8.00622219	      4.13923973	     45.73060242	    -19.94115743	     -5.54314522	     81.85125693	     44.75627536	      0.00000000	      0.00000000	    -10.72913625	     -6.01258601	      4.83478092	     26.49044222	     44.25212366	      0.00000000	      0.00000000
     52.01985714	     -2.27066921	     -6.23326988	      8.84787415	      1.07882262	      0.92667753	      0.49371093	     -0.60691456	      5.60314598	    -19.74382625	      7.71075758	      7.71075758	     13.25509500	      6.90178656	     -9.56927178	     27.58057628	     -9.46391646	     -4.24940064	     18.80217367	     18.80217367	      2.18073047	     -6.42127825	      4.83835480	     -8.96253220	      7.84065155	      4.02249973	     45.10894391	    -19.85398190	     -5.64739100	     81.87342588	     44.75843569	      0.00000000	      0.00000000	    -10.57761586	     -6.19257962	      4.79558809	     26.69531807	     44.26410329	      0.00000000	      0.00000000
     52.03314286	     -2.45694592	     -6.23236983	      8.79507476	      1.07960638	      0.92551261	      0.49172956	     -0.35736939	      5.34404174	    -19.37220680	      8.73266237	      8.73266237	     14.18193582	      6.15680014	     -8.73644023	     27.33238369	     -9.03501681	     -2.84346401	     19.47638645	     19.47638645	      1.53122097	     -8.78245269	      4.57904344	     -8.61313641	      7.69505444	      4.26516680	     44.04623131	    -20.00278487	     -6.74231873	     82.66551955	     44.77729010	      0.00000000	      0.00000000	    -10.46056026	     -6.42562481	      4.60481140	     27.72303424	     44.31775147	      0.00000000	      0.00000000
     52.04642857	     -2.33376724	     -6.07844412	      8.71163322	      1.08085485	      0.92510993	      0.48975260	     -0.75339925	      5.04860836	    -19.09822229	      9.28819664	      9.28819664	     15.42251841	      6.15083349	     -6.54910993	     26.62011175	     -8.72923927	     -2.42247294	     19.86608192	     19.86608192	      1.10675098	     -9.60946899	      3.39001107	     -8.64315572	      7.34970765	      4.51043455	     42.52414782	    -20.02769670	     -8.08145628	     83.78160451	     44.81993907	      0.00000000	      0.00000000	    -10.14695493	     -6.72608166	      4.46205583	     28.38782397	     44.43219308	      0.00000000	      0.00000000
     52.05971429	     -2.44174158	     -5.84496224	      8.64483545	      1.08179669	      0.92437301	      0.48752740	     -0.72724208	      4.57019730	    -18.77760332	     10.09309369	     10.09309369	     15.99542821	      5.50718742	     -6.38614114	     26.39523799	     -8.30880695	     -2.02219412	     20.53099956	     20.53099956	      1.37534735	    -10.21554712	      3.10811099	     -8.39245842	      6.92611152	      4.38866533	     41.45212385	    -19.99371062	     -8.18035528	     83.40940908	     44.83995090	      0.00000000	      0.00000000	     -9.69573245	     -6.89516239	      4.38133249	     28.55822251	     44.47192138	      0.00000000	      0.00000000
     52.07300000	     -2.39073800	     -5.57682887	      8.60696568	      1.08281547	      0.92405739	      0.48517276	     -1.08585790	      4.13938894	    -18.53882772	     10.47507782	     10.47507782	     16.33800498	      5.18014427	     -6.30607280	     26.04450940	     -7.91494369	     -1.78580648	     21.13292376	     21.13292376	      1.83104210	    -10.57902873	      2.78548314	     -8.37034575	      6.48541918	      4.04652699	     40.30880845	    -19.77660543	     -8.15504193	     83.11191637	     44.84628167	      0.00000000	      0.00000000	     -9.24552063	     -7.10792814	      4.31474340	     28.70857380	     44.49460439	      0.00000000	      0.00000000
     52.08628571	     -2.56843190	     -5.25033931	      8.52652886	      1.08340786	      0.92344880	      0.48271528	     -0.73106079	      3.49441461	    -17.90107829	     11.74681457	     11.74681457	     17.03126592	      3.97304635	     -5.65395226	     26.02792463	     -7.39531821	     -1.46391411	     21.74894733	     21.74894733	      2.19086058	    -11.35501949	      2.40542324	     -8.13496376	      5.95780298	      4.06157440	     38.87123738	    -19.82938485	     -8.63598676	     82.72899828	     44.87708137	      0.00000000	      0.00000000	     -8.57279332	     -7.29682208	      4.05738245	     29.01758747	     44.56403559	      0.00000000	      0.00000000
     52.09957143	     -2.45920099	     -4.94439299	      8.54357176	      1.08429555	      0.92347018	      0.48000032	     -1.12942013	      3.01102071	    -17.70581547	     12.15467029	     12.15467029	     17.24621546	      3.62875754	     -5.51077367	     25.70754620	     -6.96770984	     -1.29627661	     22.31748465	     22.31748465	      2.81672128	    -11.67752228	      2.01783863	     -8.21639741	      5.55368687	      3.64559489	     37.53267485	    -19.49891247	     -8.55007113	     82.36982534	     44.88172642	      0.00000000	      0.00000000	     -7.92732213	     -7.47651674	      3.98388201	     29.21063856	     44.58923791	      0.00000000	      0.00000000
     52.11285714	     -2.61747786	     -4.57969006	      8.41545192	      1.08471705	      0.92308342	      0.47733618	     -0.58396543	      2.27123408	    -16.92058583	     13.80763346	     13.80763346	     17.94745007	      2.18101985	     -4.54797122	     25.70730045	     -6.46585850	     -1.23143277	     22.90715421	     22.90715421	      3.35369977	    -12.27597157	      1.60940976	     -8.04396457	      5.01662155	      3.79099698	     35.79710597	    -19.64709706	     -9.03839097	     81.82236139	     44.91744936	      0.00000000	      0.00000000	     -7.03056214	     -7.65736877	      3.59692914	     29.39322398	     44.68362800	      0.00000000	      0.00000000
     52.12614286	     -2.44180980	     -4.34592466	      8.43854050	      1.08545780	      0.92341499	      0.47444418	     -0.90111641	      1.82532955	    -16.75191968	     14.44906903	     14.44906903	     18.00985253	      1.80806643	     -4.42344825	     25.33544356	     -6.12871824	     -1.16343355	     23.41137473	     23.41137473	      4.03032855	    -12.56504538	      1.24458915	     -8.24027697	      4.71857666	      3.34721955	     34.32660775	    -19.25514354	     -8.87431973	     81.36418060	     44.92187263	      0.00000000	      0.00000000	     -6.22712538	     -7.77874706	      3.52371551	     29.61368933	     44.71074375	      0.00000000	      0.00000000
     52.13942857	     -2.58600108	     -4.01555097	      8.23869151	      1.08571267	      0.92323917	      0.47171971	      0.02427072	      1.02478818	    -15.89262753	     16.87991949	     16.87991949	     19.37396419	      0.44609057	     -1.33607743	     25.29211417	     -5.72974376	     -1.40176677	     23.94874629	     23.94874629	      4.74906753	    -12.79429083	      1.16402618	     -8.11234314	      4.23994940	      3.89441127	     32.16288714	    -19.63844695	     -9.60165734	     81.01206049	     44.99157129	      0.00000000	      0.00000000	     -4.59886656	     -7.58594461	      1.87884975	     28.62298313	     45.08127757	      0.00000000	      0.00000000
     52.15271429	     -2.54687344	     -3.72489276	      8.09587095	      1.08609151	      0.92340640	      0.46885704	      0.53326066	      0.30972287	    -15.43083920	     18.76830659	     18.76830659	     19.40651022	     -0.52149796	     -1.67523067	     24.96477021	     -5.37855635	     -1.62347053	     24.32757417	     24.32757417	      5.36990186	    -12.95154317	      0.85773518	     -8.17064450	      3.87748821	      3.77923390	     30.53622852	    -19.56503775	     -9.24402390	     80.01812000	     45.01040474	      0.00000000	      0.00000000	     -3.64757259	     -7.70840207	      1.69840535	     28.92162524	     45.13244277	      0.00000000	      0.00000000
     52.16600000	     -2.50808521	     -3.47883520	      7.91327208	      1.08639289	      0.92363037	      0.46606828	      1.25779931	     -0.39566501	    -14.88067305	     21.00677683	     21.00677683	     19.30841171	     -1.64821535	     -2.15406970	     24.59659015	     -5.08929655	     -1.90518185	     24.63754380	     24.63754380	      5.97030706	    -13.03432876	      0.58508747	     -8.22587210	      3.58236917	      3.72795853	     28.87171189	    -19.50105923	     -8.78206637	     78.90037781	     45.02910568	      0.00000000	      0.00000000	     -2.60456536	     -7.80823980	      1.52172203	     29.12527727	     45.18371884	      0.00000000	      0.00000000
     52.17928571	     -2.45948621	     -3.25432173	      7.68688420	      1.08659446	      0.92392955	      0.46336772	      2.19071866	     -1.11979901	    -14.26535213	     23.59713328	     23.59713328	     19.04044445	     -2.83122819	     -2.80968290	     24.16602737	     -4.83467345	     -2.22418759	     24.86664263	     24.86664263	      6.54844279	    -13.05158317	      0.32372360	     -8.32847462	      3.32606208	      3.70806086	     27.18684461	    -19.41343343	     -8.21612277	     77.67359981	     45.04707131	      0.00000000	      0.00000000	     -1.51523008	     -7.90995855	      1.35676718	     29.27761389	     45.23273691	      0.00000000	      0.00000000
     52.19257143	     -2.46007430	     -3.14401272	      7.43958812	      1.08674049	      0.92418156	      0.46088082	      3.40389300	     -1.72141179	    -13.54758052	     26.49535381	     26.49535381	     18.40330576	     -4.31561791	     -3.90924708	     23.77990364	     -4.70490745	     -2.52984168	     25.04632760	     25.04632760	      7.06189029	    -13.04872059	      0.10496038	     -8.25827817	      3.13506341	      3.73882627	     25.50370710	    -19.41146457	     -7.33755221	     76.03712380	     45.07020073	      0.00000000	      0.00000000	     -0.29621649	     -7.94040098	      1.11758681	     29.22785355	     45.29859889	      0.00000000	      0.00000000
